<?xml version="1.0" encoding="UTF-8" standalone="no"?>
<!DOCTYPE svg PUBLIC "-//W3C//DTD SVG 1.1//EN"
 "http://www.w3.org/Graphics/SVG/1.1/DTD/svg11.dtd">
<!-- Generated by graphviz version 2.47.2 (20210527.0053)
 -->
<!-- Pages: 1 -->
<svg width="252pt" height="170pt"
 viewBox="0.00 0.00 251.87 170.12" xmlns="http://www.w3.org/2000/svg" xmlns:xlink="http://www.w3.org/1999/xlink">
<g id="graph0" class="graph" transform="scale(1 1) rotate(0) translate(4 166.12)">
<polygon fill="white" stroke="transparent" points="-4,4 -4,-166.12 247.87,-166.12 247.87,4 -4,4"/>
<!-- &#45;1 -->
<g id="node1" class="node">
<title>&#45;1</title>
<polygon fill="lightgray" stroke="black" points="73.49,-162.12 49.49,-162.12 49.49,-144.12 73.49,-144.12 73.49,-162.12"/>
<text text-anchor="middle" x="61.49" y="-150.92" font-family="Times New Roman,serif" font-size="9.00">&#45;1</text>
</g>
<!-- 0 -->
<g id="node3" class="node">
<title>0</title>
<ellipse fill="lightblue" stroke="black" cx="88.49" cy="-86.91" rx="14.7" ry="14.7"/>
<text text-anchor="middle" x="88.49" y="-84.71" font-family="Times New Roman,serif" font-size="9.00">0</text>
</g>
<!-- &#45;1&#45;&gt;0 -->
<g id="edge1" class="edge">
<title>&#45;1&#45;&gt;0</title>
<path fill="none" stroke="red" stroke-width="0.61" d="M64.91,-143.99C68.42,-135.64 74.05,-122.26 78.92,-110.66"/>
<polygon fill="red" stroke="red" stroke-width="0.61" points="82.29,-111.67 82.94,-101.1 75.84,-108.96 82.29,-111.67"/>
</g>
<!-- 1 -->
<g id="node4" class="node">
<title>1</title>
<ellipse fill="lightblue" stroke="black" cx="34.49" cy="-14.85" rx="14.7" ry="14.7"/>
<text text-anchor="middle" x="34.49" y="-12.65" font-family="Times New Roman,serif" font-size="9.00">1</text>
</g>
<!-- &#45;1&#45;&gt;1 -->
<g id="edge2" class="edge">
<title>&#45;1&#45;&gt;1</title>
<path fill="none" stroke="green" stroke-width="0.18" stroke-dasharray="1,5" d="M49.2,-146.78C35.4,-140.03 13.75,-126.97 4.49,-108.12 -7.31,-84.11 7.08,-54.37 19.71,-35.26"/>
<polygon fill="green" stroke="green" stroke-width="0.18" points="22.59,-37.24 25.46,-27.04 16.86,-33.22 22.59,-37.24"/>
</g>
<!-- 2 -->
<g id="node5" class="node">
<title>2</title>
<ellipse fill="lightblue" stroke="black" cx="136.49" cy="-86.91" rx="14.7" ry="14.7"/>
<text text-anchor="middle" x="136.49" y="-84.71" font-family="Times New Roman,serif" font-size="9.00">2</text>
</g>
<!-- &#45;1&#45;&gt;2 -->
<g id="edge3" class="edge">
<title>&#45;1&#45;&gt;2</title>
<path fill="none" stroke="green" stroke-width="0.42" d="M70.99,-143.99C82.69,-133.97 102.86,-116.7 117.73,-103.97"/>
<polygon fill="green" stroke="green" stroke-width="0.42" points="120.04,-106.6 125.36,-97.44 115.49,-101.28 120.04,-106.6"/>
</g>
<!-- 137 -->
<g id="node6" class="node">
<title>137</title>
<ellipse fill="white" stroke="black" cx="34.49" cy="-86.91" rx="21.43" ry="21.43"/>
<text text-anchor="middle" x="34.49" y="-84.71" font-family="Times New Roman,serif" font-size="9.00">137</text>
</g>
<!-- &#45;1&#45;&gt;137 -->
<g id="edge8" class="edge">
<title>&#45;1&#45;&gt;137</title>
<path fill="none" stroke="green" stroke-width="0.32" d="M58.07,-143.99C55.1,-136.93 50.62,-126.28 46.36,-116.15"/>
<polygon fill="green" stroke="green" stroke-width="0.32" points="49.51,-114.6 42.4,-106.74 43.05,-117.31 49.51,-114.6"/>
</g>
<!-- &#45;2 -->
<g id="node2" class="node">
<title>&#45;2</title>
<polygon fill="lightgray" stroke="black" points="169.49,-162.12 145.49,-162.12 145.49,-144.12 169.49,-144.12 169.49,-162.12"/>
<text text-anchor="middle" x="157.49" y="-150.92" font-family="Times New Roman,serif" font-size="9.00">&#45;2</text>
</g>
<!-- &#45;2&#45;&gt;0 -->
<g id="edge4" class="edge">
<title>&#45;2&#45;&gt;0</title>
<path fill="none" stroke="red" stroke-width="0.51" stroke-dasharray="1,5" d="M148.75,-143.99C138.2,-134.17 120.18,-117.41 106.59,-104.76"/>
<polygon fill="red" stroke="red" stroke-width="0.51" points="108.9,-102.12 99.19,-97.87 104.13,-107.25 108.9,-102.12"/>
</g>
<!-- &#45;2&#45;&gt;1 -->
<g id="edge5" class="edge">
<title>&#45;2&#45;&gt;1</title>
<path fill="none" stroke="green" stroke-width="0.45" d="M160.63,-144.12C166.48,-127.77 177.03,-90.03 160.49,-65.7 137.87,-32.43 89.25,-21.36 59.46,-17.68"/>
<polygon fill="green" stroke="green" stroke-width="0.45" points="59.72,-14.19 49.41,-16.63 59,-21.15 59.72,-14.19"/>
</g>
<!-- &#45;2&#45;&gt;2 -->
<g id="edge6" class="edge">
<title>&#45;2&#45;&gt;2</title>
<path fill="none" stroke="red" stroke-width="0.35" d="M154.83,-143.99C152.13,-135.74 147.83,-122.59 144.07,-111.1"/>
<polygon fill="red" stroke="red" stroke-width="0.35" points="147.4,-110 140.96,-101.59 140.74,-112.18 147.4,-110"/>
</g>
<!-- 21 -->
<g id="node7" class="node">
<title>21</title>
<ellipse fill="white" stroke="black" cx="225.49" cy="-86.91" rx="18.27" ry="18.27"/>
<text text-anchor="middle" x="225.49" y="-84.71" font-family="Times New Roman,serif" font-size="9.00">21</text>
</g>
<!-- &#45;2&#45;&gt;21 -->
<g id="edge7" class="edge">
<title>&#45;2&#45;&gt;21</title>
<path fill="none" stroke="green" stroke-width="0.18" d="M166.1,-143.99C175.81,-134.83 191.93,-119.6 204.93,-107.33"/>
<polygon fill="green" stroke="green" stroke-width="0.18" points="207.67,-109.56 212.53,-100.15 202.86,-104.47 207.67,-109.56"/>
</g>
<!-- 137&#45;&gt;1 -->
<g id="edge9" class="edge">
<title>137&#45;&gt;1</title>
<path fill="none" stroke="red" stroke-width="0.11" d="M34.49,-65.65C34.49,-57.67 34.49,-48.43 34.49,-40.1"/>
<polygon fill="red" stroke="red" stroke-width="0.11" points="37.99,-39.85 34.49,-29.85 30.99,-39.85 37.99,-39.85"/>
</g>
</g>
</svg>
